<?xml version="1.0" encoding="utf-8"?>
<!-- Generator: Adobe Illustrator 26.0.1, SVG Export Plug-In . SVG Version: 6.00 Build 0)  -->
<!DOCTYPE svg PUBLIC "-//W3C//DTD SVG 1.1//EN" "http://www.w3.org/Graphics/SVG/1.1/DTD/svg11.dtd" [
	<!ENTITY ns_extend "http://ns.adobe.com/Extensibility/1.0/">
	<!ENTITY ns_ai "http://ns.adobe.com/AdobeIllustrator/10.0/">
	<!ENTITY ns_graphs "http://ns.adobe.com/Graphs/1.0/">
	<!ENTITY ns_vars "http://ns.adobe.com/Variables/1.0/">
	<!ENTITY ns_imrep "http://ns.adobe.com/ImageReplacement/1.0/">
	<!ENTITY ns_sfw "http://ns.adobe.com/SaveForWeb/1.0/">
	<!ENTITY ns_custom "http://ns.adobe.com/GenericCustomNamespace/1.0/">
	<!ENTITY ns_adobe_xpath "http://ns.adobe.com/XPath/1.0/">
]>
<svg version="1.1" id="Layer_1" xmlns:x="&ns_extend;" xmlns:i="&ns_ai;" xmlns:graph="&ns_graphs;"
	 xmlns="http://www.w3.org/2000/svg" xmlns:xlink="http://www.w3.org/1999/xlink" x="0px" y="0px" width="51px" height="51px"
	 viewBox="0 0 51 51" style="enable-background:new 0 0 51 51;" xml:space="preserve">
<style type="text/css">
	.st0{fill:#E53838;}
	.st1{fill:none;stroke:#fff;stroke-width:0.8;stroke-linecap:round;stroke-linejoin:round;}
</style>
<metadata>
	<sfw  xmlns="&ns_sfw;">
		<slices></slices>
		<sliceSourceBounds  bottomLeftOrigin="true" height="51" width="51" x="0" y="0"></sliceSourceBounds>
	</sfw>
</metadata>
<path class="st0" d="M5,0h41c2.8,0,5,2.2,5,5v41c0,2.8-2.2,5-5,5H5c-2.8,0-5-2.2-5-5V5C0,2.2,2.2,0,5,0z"/>
<g>
	<path class="st1" d="M36.1,20.3c-0.2-0.3-0.3-0.7-0.1-1c0.2-0.4,0.3-0.8,0.5-1.2c0.4-0.9,0.1-1.6-0.8-2.1c-0.4-0.2-0.8-0.4-1.2-0.6
		c-0.4-0.2-0.6-0.5-0.6-0.8c-0.1-0.4-0.1-0.8-0.1-1.2c0-1-0.8-1.7-1.9-1.5c-0.4,0.1-0.8,0.1-1.2,0c-0.3,0-0.6-0.2-0.8-0.5
		c-0.2-0.4-0.5-0.7-0.7-1.1c-0.2-0.4-0.5-0.6-1-0.7c0,0-0.1,0-0.1-0.1h-0.5c-0.6,0.2-1.2,0.6-1.8,0.9c-0.3,0.2-0.6,0.2-1,0
		c-0.3-0.1-0.5-0.3-0.8-0.4c-0.3-0.2-0.6-0.3-1-0.5h-0.4c-0.4,0.1-0.7,0.3-1,0.6c-0.2,0.2-0.3,0.5-0.4,0.7c-0.2,0.2-0.3,0.5-0.5,0.7
		c-0.2,0.3-0.5,0.4-0.8,0.4c-0.4,0-0.8,0-1.2,0c-1-0.1-1.8,0.6-1.8,1.5c0,0.5-0.1,0.9-0.1,1.4c0,0.3-0.2,0.5-0.5,0.7
		c-0.4,0.2-0.9,0.4-1.3,0.6c-0.7,0.4-1,1.1-0.7,1.9c0.2,0.4,0.4,0.9,0.5,1.3c0.1,0.4,0.1,0.7-0.1,1c-0.2,0.2-0.3,0.4-0.5,0.6
		c-0.3,0.4-0.6,0.7-0.7,1.2v0.4c0.2,0.8,0.8,1.2,1.4,1.6c0.6,0.5,0.7,1,0.6,1.7c-0.1,0.4-0.1,0.7-0.2,1.1c-0.1,0.8,0.5,1.4,1.2,1.5
		c0.4,0.1,0.9,0.2,1.3,0.3c0.1,0,0.2,0.1,0.3,0.1c0.2,0.1,0.4,0.3,0.5,0.6c0.1,0.3,0.2,0.7,0.3,1l0,0c0,0.1,0.1,0.3,0.1,0.4
		c0.3,0.7,1,1.1,1.7,0.9c0.5-0.1,0.9-0.2,1.4-0.4c0.4-0.1,0.7,0,1,0.3c0.3,0.3,0.6,0.6,0.9,0.9c0,0,0.1,0.1,0.1,0.1
		c0.2,0.2,0.5,0.3,0.8,0.4h0.4c0.5-0.1,0.8-0.4,1.1-0.7c0.2-0.2,0.4-0.4,0.6-0.6c0.4-0.4,0.8-0.5,1.3-0.3c0.4,0.1,0.8,0.2,1.2,0.3
		c0.8,0.2,1.5-0.2,1.8-0.9c0-0.1,0.1-0.2,0.1-0.2c0.1-0.4,0.3-0.7,0.4-1.1c0.1-0.3,0.3-0.5,0.5-0.6c0,0,0.1,0,0.1-0.1
		c0.1,0,0.2-0.1,0.2-0.1c0.4-0.1,0.9-0.2,1.3-0.3c0.8-0.2,1.3-1,1.1-1.8c-0.1-0.4-0.1-0.8-0.2-1.2c-0.1-0.5,0.2-0.9,0.6-1.2
		c0.3-0.2,0.5-0.5,0.8-0.7c0.3-0.3,0.5-0.6,0.6-1v-0.4C37,21.4,36.5,20.9,36.1,20.3z M25.3,29.6c-4.4-0.1-8.3-3.8-8.1-8.6
		c0.1-4.4,3.8-8.3,8.6-8.1c4.4,0.1,8.1,3.7,8.1,8.4C33.9,25.8,30.1,29.7,25.3,29.6z"/>
	<polygon class="st1" points="25.5,16.4 27.1,19.6 30.6,20.1 28.1,22.6 28.7,26.1 25.5,24.4 22.3,26.1 22.9,22.6 20.4,20.1 
		23.9,19.6 	"/>
	<g>
		<polyline class="st1" points="18.4,28.8 14.5,39 18.6,37.7 20.8,41.2 24.4,32.5 		"/>
		<line class="st1" x1="19.2" y1="30.4" x2="19.2" y2="30.4"/>
		<polyline class="st1" points="32.8,28.8 36.5,39 32.4,37.7 30.5,41.5 26.8,32.3 		"/>
	</g>
</g>
</svg>
