<svg xmlns="http://www.w3.org/2000/svg" width="51" height="51" viewBox="0 0 51 51"><defs><style>.cls-1{fill:#E53838;}.cls-2{fill:none;stroke:#fff;stroke-linecap:round;stroke-linejoin:round;stroke-width:0.8px;}</style></defs><g id="Layer_2" data-name="Layer 2"><g id="Layer_1-2" data-name="Layer 1"><rect class="cls-1" width="51" height="51" rx="5"/><path class="cls-2" d="M34.86,35.14V38a2.48,2.48,0,0,1-2.41,2.54H18.55A2.48,2.48,0,0,1,16.14,38V11A2.48,2.48,0,0,1,18.55,8.5h13.9A2.48,2.48,0,0,1,34.86,11Z"/><line class="cls-2" x1="21.7" y1="37.84" x2="29.3" y2="37.84"/><line class="cls-2" x1="23.98" y1="10.44" x2="27.02" y2="10.44"/><line class="cls-2" x1="16.14" y1="12.39" x2="34.37" y2="12.39"/><line class="cls-2" x1="16.14" y1="35.18" x2="34.37" y2="35.18"/><polyline class="cls-2" points="23.03 27.08 20.46 24.52 23.03 21.97"/><polyline class="cls-2" points="27.97 27.08 30.54 24.52 27.97 21.97"/><line class="cls-2" x1="26.48" y1="20.85" x2="24.52" y2="28.15"/></g></g></svg>