<svg xmlns="http://www.w3.org/2000/svg" width="51" height="51" viewBox="0 0 51 51"><defs><style>.cls-1{fill:#E53838;}.cls-2{fill:none;stroke:#fff;stroke-linecap:round;stroke-linejoin:round;stroke-width:0.84px;}</style></defs><g id="Layer_2" data-name="Layer 2"><g id="Layer_1-2" data-name="Layer 1"><rect class="cls-1" width="51" height="51" rx="5"/><rect class="cls-2" x="12.91" y="22.81" width="2.99" height="2.99"/><rect class="cls-2" x="35.1" y="22.81" width="2.99" height="2.99"/><rect class="cls-2" x="24.01" y="11.34" width="2.99" height="2.99"/><circle class="cls-2" cx="15.57" cy="12.86" r="1.11"/><circle class="cls-2" cx="35.78" cy="12.86" r="1.11"/><line class="cls-2" x1="16.68" y1="12.86" x2="34.67" y2="12.86"/><path class="cls-2" d="M14.49,22.81a11.08,11.08,0,0,1,22,0"/><path class="cls-2" d="M25.51,18.25h0S22.58,26.35,18.34,30l2.55,6.22h9.37L32.8,30S29,27.47,25.51,18.25Z"/><line class="cls-2" x1="25.51" y1="30.02" x2="25.51" y2="18.25"/><circle class="cls-2" cx="25.51" cy="31.37" r="1.35"/><rect class="cls-2" x="20.89" y="36.24" width="9.33" height="3.43"/></g></g></svg>