<svg xmlns="http://www.w3.org/2000/svg" width="51" height="51" viewBox="0 0 51 51"><defs><style>.cls-1{fill:#E53838;}.cls-2{fill:none;stroke:#fff;stroke-linecap:round;stroke-linejoin:round;stroke-width:0.8px;}.cls-3{fill:#fff;}</style></defs><g id="Layer_2" data-name="Layer 2"><g id="Layer_1-2" data-name="Layer 1"><rect class="cls-1" width="51" height="51" rx="5"/><path class="cls-2" d="M22.82,16.74a5.61,5.61,0,0,1,9,1.19,6.84,6.84,0,0,1,2.79-.6,7,7,0,1,1-1.36,13.79,5,5,0,0,1-4.4,2.58,5,5,0,0,1-2.21-.51,5.75,5.75,0,0,1-10.69-.26,5,5,0,0,1-1.1.12A5.41,5.41,0,0,1,12.17,23a6.21,6.21,0,0,1,5.7-8.68,6.23,6.23,0,0,1,4.95,2.44"/><path class="cls-3" d="M14.13,25.92a0,0,0,0,0,0,.07l.18.11a2,2,0,0,0,1,.22c.65,0,1.06-.35,1.06-.91h0c0-.52-.46-.71-.89-.84l-.06,0c-.32-.11-.6-.2-.6-.41h0c0-.19.16-.32.42-.32a1.89,1.89,0,0,1,.83.21.06.06,0,0,0,.09,0l.13-.36a.06.06,0,0,0,0-.07,1.88,1.88,0,0,0-.94-.26h-.07a.92.92,0,0,0-1,.89h0c0,.55.47.72.9.85l.07,0c.31.1.59.18.59.4h0c0,.21-.18.36-.47.36a1.53,1.53,0,0,1-.84-.24l-.11-.07s-.07,0-.09,0l-.13.36Zm9.61,0a0,0,0,0,0,0,.07l.18.11a2,2,0,0,0,1,.22c.65,0,1.06-.35,1.06-.91h0c0-.52-.46-.71-.89-.84l-.06,0c-.32-.11-.6-.2-.6-.41h0c0-.19.16-.32.42-.32a1.89,1.89,0,0,1,.83.21.06.06,0,0,0,.09,0l.13-.36a.06.06,0,0,0,0-.07,1.88,1.88,0,0,0-.94-.26h-.07a.92.92,0,0,0-1,.89h0c0,.55.47.72.9.85l.07,0c.31.1.59.18.59.4h0c0,.21-.18.36-.47.36a1.53,1.53,0,0,1-.84-.24L24,25.53a.06.06,0,0,0-.09,0l-.13.36Zm6.56-1.1a1.33,1.33,0,0,1-.17.74.58.58,0,0,1-.53.26.59.59,0,0,1-.54-.26,1.72,1.72,0,0,1,0-1.49.6.6,0,0,1,.54-.25.6.6,0,0,1,.53.25,1.35,1.35,0,0,1,.17.75m.55-.59a1.22,1.22,0,0,0-.25-.48,1.23,1.23,0,0,0-.42-.32,1.31,1.31,0,0,0-.58-.12,1.35,1.35,0,0,0-.59.12,1.23,1.23,0,0,0-.42.32,1.22,1.22,0,0,0-.25.48,1.83,1.83,0,0,0-.08.59,1.81,1.81,0,0,0,.08.58,1.1,1.1,0,0,0,.25.48,1.23,1.23,0,0,0,.42.32,1.51,1.51,0,0,0,.59.11,1.5,1.5,0,0,0,.58-.11,1.23,1.23,0,0,0,.42-.32,1.22,1.22,0,0,0,.25-.48,1.85,1.85,0,0,0,.08-.58,1.87,1.87,0,0,0-.08-.59m4.5,1.51a.05.05,0,0,0-.07,0l-.25.08-.3,0a.82.82,0,0,1-.63-.24,1,1,0,0,1-.23-.75,1.12,1.12,0,0,1,.21-.72.69.69,0,0,1,.6-.27,1.72,1.72,0,0,1,.58.09.05.05,0,0,0,.07,0c0-.13.08-.23.13-.38a0,0,0,0,0,0-.06,2,2,0,0,0-.37-.09,2.54,2.54,0,0,0-.41,0,1.44,1.44,0,0,0-.61.12,1.19,1.19,0,0,0-.44.32,1.29,1.29,0,0,0-.27.47,1.87,1.87,0,0,0-.09.59,1.53,1.53,0,0,0,.37,1.09,1.37,1.37,0,0,0,1.08.41,2.2,2.2,0,0,0,.77-.14.06.06,0,0,0,0-.06l-.14-.37Zm1-1.23a1.26,1.26,0,0,1,.15-.44A.6.6,0,0,1,37,23.8a.58.58,0,0,1,.52.27.87.87,0,0,1,.12.44Zm1.85-.39a1.32,1.32,0,0,0-.24-.43,1.14,1.14,0,0,0-.35-.27,1.53,1.53,0,0,0-.54-.11,1.44,1.44,0,0,0-.61.12,1.14,1.14,0,0,0-.42.33,1.31,1.31,0,0,0-.26.48,2.21,2.21,0,0,0-.08.59,1.83,1.83,0,0,0,.09.59,1.06,1.06,0,0,0,.27.47,1.07,1.07,0,0,0,.46.31,1.76,1.76,0,0,0,.68.11,2,2,0,0,0,.93-.18s0,0,0-.09L38,25.7c0-.05-.07,0-.07,0a1.81,1.81,0,0,1-.76.13A.75.75,0,0,1,36.3,25h1.86a0,0,0,0,0,.05,0,2.18,2.18,0,0,0-.05-.8m-16.7.39a1,1,0,0,1,.15-.44.59.59,0,0,1,.53-.27.59.59,0,0,1,.52.27,1,1,0,0,1,.12.44Zm1.84-.39a1.16,1.16,0,0,0-.24-.43,1,1,0,0,0-.35-.27,1.43,1.43,0,0,0-.53-.11,1.44,1.44,0,0,0-.61.12,1.18,1.18,0,0,0-.43.33,1.29,1.29,0,0,0-.25.48,2.21,2.21,0,0,0-.08.59,2.16,2.16,0,0,0,.08.59,1.29,1.29,0,0,0,.27.47,1.11,1.11,0,0,0,.47.31,1.68,1.68,0,0,0,.67.11,2,2,0,0,0,.94-.18s0,0,0-.09l-.12-.34a.05.05,0,0,0-.07,0,1.81,1.81,0,0,1-.76.13.91.91,0,0,1-.64-.21.92.92,0,0,1-.21-.62H23.3a.06.06,0,0,0,.06,0,2.07,2.07,0,0,0-.06-.8m-5.85,1.61a.35.35,0,0,1-.11-.11.44.44,0,0,1-.06-.25.39.39,0,0,1,.17-.35.85.85,0,0,1,.54-.14,3.44,3.44,0,0,1,.5,0v.85h0a3.2,3.2,0,0,1-.5.06.87.87,0,0,1-.54-.1m.74-1.31H17.9a1.7,1.7,0,0,0-.46.06,1.17,1.17,0,0,0-.39.18,1,1,0,0,0-.27.31.94.94,0,0,0-.1.43.93.93,0,0,0,.09.42.75.75,0,0,0,.24.29,1,1,0,0,0,.38.16,1.85,1.85,0,0,0,.49,0,3.43,3.43,0,0,0,.56,0l.47-.09.13,0a0,0,0,0,0,0-.06V24.39a1,1,0,0,0-.29-.82,1.28,1.28,0,0,0-.86-.26,2.72,2.72,0,0,0-.49.05,1.66,1.66,0,0,0-.57.2.07.07,0,0,0,0,.08L17,24c0,.05.06,0,.06,0h0a1.82,1.82,0,0,1,.81-.19.76.76,0,0,1,.46.12c.1.08.15.19.15.44v.08l-.3,0m15-1s0-.07,0-.07a1.3,1.3,0,0,0-.31,0,.88.88,0,0,0-.48.07,1.09,1.09,0,0,0-.32.23v-.22a.06.06,0,0,0,0-.06h-.47a.06.06,0,0,0-.06.06V26.2a.06.06,0,0,0,.06.05H32A0,0,0,0,0,32,26.2V24.81a1.61,1.61,0,0,1,.06-.48.7.7,0,0,1,.17-.28.48.48,0,0,1,.23-.13.75.75,0,0,1,.24,0,.93.93,0,0,1,.21,0s.05,0,.07-.05l.14-.39"/><path class="cls-3" d="M28.57,22.18l-.18,0-.25,0a1.1,1.1,0,0,0-.79.28,1.56,1.56,0,0,0-.37.84l0,.13h-.42a.06.06,0,0,0-.06.05l-.07.39s0,.06.06.06h.41l-.41,2.32a4.53,4.53,0,0,1-.11.46,1.25,1.25,0,0,1-.13.26.36.36,0,0,1-.17.13.78.78,0,0,1-.22,0h-.15l-.1,0s0,0-.07,0-.12.34-.14.38a.07.07,0,0,0,0,.08l.17,0a1.37,1.37,0,0,0,.27,0,1.27,1.27,0,0,0,.46-.07.88.88,0,0,0,.34-.24,1.11,1.11,0,0,0,.24-.41,3.52,3.52,0,0,0,.17-.63l.41-2.36h.62a.06.06,0,0,0,.06-.05l.07-.39s0-.06-.06-.06h-.6a3.81,3.81,0,0,1,.1-.42.58.58,0,0,1,.13-.2.51.51,0,0,1,.16-.09.6.6,0,0,1,.2,0h.15l.09,0c.06,0,.07,0,.08,0l.15-.39s0-.06,0-.07m-8.29,4a0,0,0,0,1-.05.05h-.49a0,0,0,0,1,0-.05v-4a.06.06,0,0,1,0-.06h.49a.06.06,0,0,1,.05.06Z"/></g></g></svg>