<svg xmlns="http://www.w3.org/2000/svg" width="51" height="51" viewBox="0 0 51 51"><defs><style>.cls-1{fill:#E53838;}.cls-2,.cls-3{fill:none;stroke:#fff;stroke-linecap:round;stroke-linejoin:round;stroke-width:0.8px;}.cls-3{fill-rule:evenodd;}</style></defs><g id="Layer_2" data-name="Layer 2"><g id="Layer_1-2" data-name="Layer 1"><rect class="cls-1" width="51" height="51" rx="5"/><path class="cls-2" d="M41.5,11.4H9.5V39.6h32V11.4Zm0,6.67H9.5"/><path class="cls-3" d="M37.47,13.63a1.24,1.24,0,1,0,1.14,1.24,1.19,1.19,0,0,0-1.14-1.24Z"/><path class="cls-3" d="M33.76,13.63a1.24,1.24,0,1,0,1.14,1.24,1.19,1.19,0,0,0-1.14-1.24Z"/><path class="cls-2" d="M25.5,25.65a9.72,9.72,0,0,1,2.23.26L28,28.74a8.2,8.2,0,0,1,1.64.68l2.2-1.82A10.15,10.15,0,0,1,35,30.75l-1.82,2.19a8.72,8.72,0,0,1,.68,1.64l2.83.27a9.69,9.69,0,0,1,0,4.46l-2.83.26v0H17.16v0l-2.83-.26a9.69,9.69,0,0,1,0-4.46l2.83-.27a8.72,8.72,0,0,1,.68-1.64L16,30.75a10.15,10.15,0,0,1,3.15-3.15l2.2,1.82A8.37,8.37,0,0,1,23,28.74l.27-2.83a9.72,9.72,0,0,1,2.23-.26Zm0,6.83a4.59,4.59,0,0,1,4.59,4.6,4.53,4.53,0,0,1-.75,2.52H21.66a4.54,4.54,0,0,1-.76-2.52,4.6,4.6,0,0,1,4.6-4.6Z"/></g></g></svg>